G04 DipTrace 3.3.1.3*
G04 Bottom.gbr*
%MOIN*%
G04 #@! TF.FileFunction,Copper,L2,Bot*
G04 #@! TF.Part,Single*
G04 #@! TA.AperFunction,Conductor*
%ADD13C,0.012*%
G04 #@! TA.AperFunction,ComponentPad*
%ADD15R,0.066929X0.066929*%
%ADD16C,0.066929*%
%FSLAX26Y26*%
G04*
G70*
G90*
G75*
G01*
G04 Bottom*
%LPD*%
X693700Y743700D2*
D13*
X493700D1*
X693700Y843700D2*
X493700D1*
X693700Y943700D2*
X493700D1*
X693700Y1043700D2*
X493700D1*
X693700Y1143700D2*
X493700D1*
X693700Y1243700D2*
X493700D1*
X693700Y1343700D2*
X493700D1*
X693700Y1443700D2*
X493700D1*
X693700Y1543700D2*
X493700D1*
X693700Y1643700D2*
X493700D1*
X693700Y1743700D2*
X493700D1*
X693700Y1843700D2*
X493700D1*
Y1943700D2*
X718235D1*
X693700D1*
X1793700D2*
X1593700D1*
X1793700Y1843700D2*
X1593700D1*
X1793700Y1743700D2*
X1593700D1*
X1793700Y1643700D2*
X1593700D1*
X1793700Y1543700D2*
X1593700D1*
X1793700Y1443700D2*
X1593700D1*
X1793700Y1343700D2*
X1593700D1*
X1793700Y1243700D2*
X1593700D1*
X1793700Y1143700D2*
X1593700D1*
X1793700Y1043700D2*
X1593700D1*
X1793700Y943700D2*
X1593700D1*
X1793700Y843700D2*
X1593700D1*
X1793700Y743700D2*
X1593700D1*
D15*
X693700Y1943700D3*
D16*
Y1843700D3*
Y1743700D3*
Y1643700D3*
Y1543700D3*
Y1443700D3*
Y1343700D3*
Y1243700D3*
Y1143700D3*
Y1043700D3*
Y943700D3*
Y843700D3*
Y743700D3*
D15*
X1793700Y1943700D3*
D16*
Y1843700D3*
Y1743700D3*
Y1643700D3*
Y1543700D3*
Y1443700D3*
Y1343700D3*
Y1243700D3*
Y1143700D3*
Y1043700D3*
Y943700D3*
Y843700D3*
Y743700D3*
D15*
X493700D3*
D16*
Y843700D3*
Y943700D3*
Y1043700D3*
Y1143700D3*
Y1243700D3*
Y1343700D3*
Y1443700D3*
Y1543700D3*
Y1643700D3*
Y1743700D3*
Y1843700D3*
Y1943700D3*
D15*
X1593700Y743700D3*
D16*
Y843700D3*
Y943700D3*
Y1043700D3*
Y1143700D3*
Y1243700D3*
Y1343700D3*
Y1443700D3*
Y1543700D3*
Y1643700D3*
Y1743700D3*
Y1843700D3*
Y1943700D3*
M02*
