M48
INCH
T01C0.0433
%
T01
X+006937Y+019437
X+006937Y+018437
X+006937Y+017437
X+006937Y+016437
X+006937Y+015437
X+006937Y+014437
X+006937Y+013437
X+006937Y+012437
X+006937Y+011437
X+006937Y+010437
X+006937Y+009437
X+006937Y+008437
X+006937Y+007437
X+004937Y+007437
X+004937Y+008437
X+004937Y+009437
X+004937Y+010437
X+004937Y+011437
X+004937Y+012437
X+004937Y+013437
X+004937Y+014437
X+004937Y+015437
X+004937Y+016437
X+004937Y+017437
X+004937Y+018437
X+004937Y+019437
X+015937Y+019437
X+015937Y+018437
X+015937Y+017437
X+015937Y+016437
X+015937Y+015437
X+015937Y+014437
X+015937Y+013437
X+015937Y+012437
X+015937Y+011437
X+015937Y+010437
X+015937Y+009437
X+015937Y+008437
X+015937Y+007437
X+017937Y+007437
X+017937Y+008437
X+017937Y+009437
X+017937Y+010437
X+017937Y+011437
X+017937Y+012437
X+017937Y+013437
X+017937Y+014437
X+017937Y+015437
X+017937Y+016437
X+017937Y+017437
X+017937Y+018437
X+017937Y+019437
T00
M30
