G04 DipTrace 3.3.1.3*
G04 TopAssy.gbr*
%MOIN*%
G04 #@! TF.FileFunction,Drawing,Top*
G04 #@! TF.Part,Single*
%ADD10C,0.009843*%
%ADD24C,0.003088*%
%FSLAX26Y26*%
G04*
G70*
G90*
G75*
G01*
G04 TopAssy*
%LPD*%
X753539Y2031889D2*
D10*
Y655511D1*
X1853539Y2031889D2*
Y655511D1*
X433861D2*
Y2031889D1*
X1533861Y655511D2*
Y2031889D1*
X791838Y1443182D2*
D24*
X771742D1*
Y1434560D1*
X772714Y1431686D1*
X773665Y1430735D1*
X775566Y1429785D1*
X778440D1*
X780364Y1430735D1*
X781314Y1431686D1*
X782265Y1434560D1*
X783238Y1431686D1*
X784188Y1430735D1*
X786090Y1429785D1*
X788013D1*
X789914Y1430735D1*
X790887Y1431686D1*
X791838Y1434560D1*
Y1443182D1*
X782265D2*
Y1434560D1*
X791838Y1417861D2*
X790887Y1419784D1*
X788964Y1421686D1*
X787062Y1422658D1*
X784188Y1423609D1*
X779391D1*
X776539Y1422659D1*
X774616Y1421686D1*
X772714Y1419785D1*
X771742Y1417861D1*
Y1414036D1*
X772714Y1412135D1*
X774616Y1410212D1*
X776539Y1409261D1*
X779391Y1408311D1*
X784188D1*
X787062Y1409261D1*
X788964Y1410212D1*
X790887Y1412135D1*
X791838Y1414036D1*
Y1417861D1*
X771742Y1386814D2*
X791838Y1394486D1*
X771742Y1402135D1*
X778440Y1399261D2*
Y1389688D1*
X782265Y1380638D2*
Y1372039D1*
X783238Y1369165D1*
X784188Y1368192D1*
X786090Y1367241D1*
X788013D1*
X789914Y1368192D1*
X790887Y1369164D1*
X791838Y1372039D1*
Y1380638D1*
X771742D1*
X782265Y1373940D2*
X771742Y1367241D1*
X791838Y1361065D2*
X771742D1*
Y1354367D1*
X772715Y1351493D1*
X774616Y1349569D1*
X776539Y1348619D1*
X779391Y1347668D1*
X784188D1*
X787062Y1348619D1*
X788964Y1349569D1*
X790887Y1351493D1*
X791838Y1354367D1*
Y1361065D1*
Y1309627D2*
Y1322052D1*
X771742D1*
Y1309627D1*
X782265Y1322052D2*
Y1314403D1*
X791838Y1303452D2*
X771742D1*
Y1296753D1*
X772715Y1293879D1*
X774616Y1291956D1*
X776539Y1291005D1*
X779391Y1290054D1*
X784188D1*
X787062Y1291005D1*
X788964Y1291956D1*
X790887Y1293879D1*
X791838Y1296753D1*
Y1303452D1*
X787062Y1269531D2*
X788964Y1270481D1*
X790887Y1272405D1*
X791838Y1274306D1*
Y1278131D1*
X790887Y1280054D1*
X788964Y1281955D1*
X787062Y1282928D1*
X784188Y1283879D1*
X779391D1*
X776539Y1282928D1*
X774616Y1281955D1*
X772715Y1280054D1*
X771742Y1278131D1*
Y1274306D1*
X772715Y1272405D1*
X774616Y1270481D1*
X776539Y1269531D1*
X779391D1*
Y1274306D1*
X791838Y1250930D2*
Y1263355D1*
X771742D1*
Y1250930D1*
X782265Y1263355D2*
Y1255706D1*
X1891838Y1443182D2*
X1871742D1*
Y1434560D1*
X1872714Y1431686D1*
X1873665Y1430735D1*
X1875566Y1429785D1*
X1878440D1*
X1880364Y1430735D1*
X1881314Y1431686D1*
X1882265Y1434560D1*
X1883238Y1431686D1*
X1884188Y1430735D1*
X1886090Y1429785D1*
X1888013D1*
X1889914Y1430735D1*
X1890887Y1431686D1*
X1891838Y1434560D1*
Y1443182D1*
X1882265D2*
Y1434560D1*
X1891838Y1417861D2*
X1890887Y1419784D1*
X1888964Y1421686D1*
X1887062Y1422658D1*
X1884188Y1423609D1*
X1879391D1*
X1876539Y1422659D1*
X1874616Y1421686D1*
X1872714Y1419785D1*
X1871742Y1417861D1*
Y1414036D1*
X1872714Y1412135D1*
X1874616Y1410212D1*
X1876539Y1409261D1*
X1879391Y1408311D1*
X1884188D1*
X1887062Y1409261D1*
X1888964Y1410212D1*
X1890887Y1412135D1*
X1891838Y1414036D1*
Y1417861D1*
X1871742Y1386814D2*
X1891838Y1394486D1*
X1871742Y1402135D1*
X1878440Y1399261D2*
Y1389688D1*
X1882265Y1380638D2*
Y1372039D1*
X1883238Y1369165D1*
X1884188Y1368192D1*
X1886090Y1367241D1*
X1888013D1*
X1889914Y1368192D1*
X1890887Y1369164D1*
X1891838Y1372039D1*
Y1380638D1*
X1871742D1*
X1882265Y1373940D2*
X1871742Y1367241D1*
X1891838Y1361065D2*
X1871742D1*
Y1354367D1*
X1872715Y1351493D1*
X1874616Y1349569D1*
X1876539Y1348619D1*
X1879391Y1347668D1*
X1884188D1*
X1887062Y1348619D1*
X1888964Y1349569D1*
X1890887Y1351493D1*
X1891838Y1354367D1*
Y1361065D1*
Y1309627D2*
Y1322052D1*
X1871742D1*
Y1309627D1*
X1882265Y1322052D2*
Y1314403D1*
X1891838Y1303452D2*
X1871742D1*
Y1296753D1*
X1872715Y1293879D1*
X1874616Y1291956D1*
X1876539Y1291005D1*
X1879391Y1290054D1*
X1884188D1*
X1887062Y1291005D1*
X1888964Y1291956D1*
X1890887Y1293879D1*
X1891838Y1296753D1*
Y1303452D1*
X1887062Y1269531D2*
X1888964Y1270481D1*
X1890887Y1272405D1*
X1891838Y1274306D1*
Y1278131D1*
X1890887Y1280054D1*
X1888964Y1281955D1*
X1887062Y1282928D1*
X1884188Y1283879D1*
X1879391D1*
X1876539Y1282928D1*
X1874616Y1281955D1*
X1872715Y1280054D1*
X1871742Y1278131D1*
Y1274306D1*
X1872715Y1272405D1*
X1874616Y1270481D1*
X1876539Y1269531D1*
X1879391D1*
Y1274306D1*
X1891838Y1250930D2*
Y1263355D1*
X1871742D1*
Y1250930D1*
X1882265Y1263355D2*
Y1255706D1*
X395562Y1244218D2*
X415658D1*
Y1252840D1*
X414686Y1255714D1*
X413735Y1256665D1*
X411834Y1257615D1*
X408960D1*
X407036Y1256665D1*
X406086Y1255714D1*
X405135Y1252840D1*
X404162Y1255714D1*
X403212Y1256665D1*
X401310Y1257615D1*
X399387D1*
X397486Y1256665D1*
X396513Y1255714D1*
X395562Y1252840D1*
Y1244218D1*
X405135D2*
Y1252840D1*
X395562Y1269539D2*
X396513Y1267616D1*
X398436Y1265714D1*
X400338Y1264742D1*
X403212Y1263791D1*
X408009D1*
X410861Y1264741D1*
X412784Y1265714D1*
X414686Y1267615D1*
X415658Y1269539D1*
Y1273364D1*
X414686Y1275265D1*
X412784Y1277188D1*
X410861Y1278139D1*
X408009Y1279089D1*
X403212D1*
X400338Y1278139D1*
X398436Y1277188D1*
X396513Y1275265D1*
X395562Y1273364D1*
Y1269539D1*
X415658Y1300586D2*
X395562Y1292914D1*
X415658Y1285265D1*
X408960Y1288139D2*
Y1297712D1*
X405135Y1306762D2*
Y1315361D1*
X404162Y1318235D1*
X403212Y1319208D1*
X401310Y1320159D1*
X399387D1*
X397486Y1319208D1*
X396513Y1318236D1*
X395562Y1315361D1*
Y1306762D1*
X415658D1*
X405135Y1313460D2*
X415658Y1320159D1*
X395562Y1326335D2*
X415658D1*
Y1333033D1*
X414685Y1335907D1*
X412784Y1337831D1*
X410861Y1338781D1*
X408009Y1339732D1*
X403212D1*
X400338Y1338781D1*
X398436Y1337831D1*
X396513Y1335907D1*
X395562Y1333033D1*
Y1326335D1*
Y1377773D2*
Y1365348D1*
X415658D1*
Y1377773D1*
X405135Y1365348D2*
Y1372997D1*
X395562Y1383948D2*
X415658D1*
Y1390647D1*
X414685Y1393521D1*
X412784Y1395444D1*
X410861Y1396395D1*
X408009Y1397346D1*
X403212D1*
X400338Y1396395D1*
X398436Y1395444D1*
X396513Y1393521D1*
X395562Y1390647D1*
Y1383948D1*
X400338Y1417869D2*
X398436Y1416919D1*
X396513Y1414995D1*
X395562Y1413094D1*
Y1409269D1*
X396513Y1407346D1*
X398436Y1405445D1*
X400338Y1404472D1*
X403212Y1403521D1*
X408009D1*
X410861Y1404472D1*
X412784Y1405445D1*
X414685Y1407346D1*
X415658Y1409269D1*
Y1413094D1*
X414685Y1414995D1*
X412784Y1416919D1*
X410861Y1417869D1*
X408009D1*
Y1413094D1*
X395562Y1436470D2*
Y1424045D1*
X415658D1*
Y1436470D1*
X405135Y1424045D2*
Y1431694D1*
X1495562Y1244218D2*
X1515658D1*
Y1252840D1*
X1514686Y1255714D1*
X1513735Y1256665D1*
X1511834Y1257615D1*
X1508960D1*
X1507036Y1256665D1*
X1506086Y1255714D1*
X1505135Y1252840D1*
X1504162Y1255714D1*
X1503212Y1256665D1*
X1501310Y1257615D1*
X1499387D1*
X1497486Y1256665D1*
X1496513Y1255714D1*
X1495562Y1252840D1*
Y1244218D1*
X1505135D2*
Y1252840D1*
X1495562Y1269539D2*
X1496513Y1267616D1*
X1498436Y1265714D1*
X1500338Y1264742D1*
X1503212Y1263791D1*
X1508009D1*
X1510861Y1264741D1*
X1512784Y1265714D1*
X1514686Y1267615D1*
X1515658Y1269539D1*
Y1273364D1*
X1514686Y1275265D1*
X1512784Y1277188D1*
X1510861Y1278139D1*
X1508009Y1279089D1*
X1503212D1*
X1500338Y1278139D1*
X1498436Y1277188D1*
X1496513Y1275265D1*
X1495562Y1273364D1*
Y1269539D1*
X1515658Y1300586D2*
X1495562Y1292914D1*
X1515658Y1285265D1*
X1508960Y1288139D2*
Y1297712D1*
X1505135Y1306762D2*
Y1315361D1*
X1504162Y1318235D1*
X1503212Y1319208D1*
X1501310Y1320159D1*
X1499387D1*
X1497486Y1319208D1*
X1496513Y1318236D1*
X1495562Y1315361D1*
Y1306762D1*
X1515658D1*
X1505135Y1313460D2*
X1515658Y1320159D1*
X1495562Y1326335D2*
X1515658D1*
Y1333033D1*
X1514685Y1335907D1*
X1512784Y1337831D1*
X1510861Y1338781D1*
X1508009Y1339732D1*
X1503212D1*
X1500338Y1338781D1*
X1498436Y1337831D1*
X1496513Y1335907D1*
X1495562Y1333033D1*
Y1326335D1*
Y1377773D2*
Y1365348D1*
X1515658D1*
Y1377773D1*
X1505135Y1365348D2*
Y1372997D1*
X1495562Y1383948D2*
X1515658D1*
Y1390647D1*
X1514685Y1393521D1*
X1512784Y1395444D1*
X1510861Y1396395D1*
X1508009Y1397346D1*
X1503212D1*
X1500338Y1396395D1*
X1498436Y1395444D1*
X1496513Y1393521D1*
X1495562Y1390647D1*
Y1383948D1*
X1500338Y1417869D2*
X1498436Y1416919D1*
X1496513Y1414995D1*
X1495562Y1413094D1*
Y1409269D1*
X1496513Y1407346D1*
X1498436Y1405445D1*
X1500338Y1404472D1*
X1503212Y1403521D1*
X1508009D1*
X1510861Y1404472D1*
X1512784Y1405445D1*
X1514685Y1407346D1*
X1515658Y1409269D1*
Y1413094D1*
X1514685Y1414995D1*
X1512784Y1416919D1*
X1510861Y1417869D1*
X1508009D1*
Y1413094D1*
X1495562Y1436470D2*
Y1424045D1*
X1515658D1*
Y1436470D1*
X1505135Y1424045D2*
Y1431694D1*
M02*
